<svg xmlns="http://www.w3.org/2000/svg"><defs><style>.fil4{fill:#fefefe}.fil3{fill:#e3e3e3}.fil0,.fil1,.fil2{fill:#fefefe;fill-rule:nonzero}.fil1,.fil2{fill-opacity:.301961}.fil2{fill-opacity:.501961}</style></defs><symbol id="facebook" viewBox="0 0 96.124 96.123"><path d="M72.089.02L59.624 0C45.62 0 36.57 9.285 36.57 23.656v10.907H24.037a1.96 1.96 0 0 0-1.96 1.961v15.803a1.96 1.96 0 0 0 1.96 1.96H36.57v39.876a1.96 1.96 0 0 0 1.96 1.96h16.352a1.96 1.96 0 0 0 1.96-1.96V54.287h14.654a1.96 1.96 0 0 0 1.96-1.96l.006-15.803a1.963 1.963 0 0 0-1.961-1.961H56.842v-9.246c0-4.444 1.059-6.7 6.848-6.7l8.397-.003a1.96 1.96 0 0 0 1.959-1.96V1.98A1.96 1.96 0 0 0 72.089.02z"/></symbol><symbol id="im" viewBox="0 0 169.063 169.063"><path d="M122.406 0H46.654C20.929 0 0 20.93 0 46.655v75.752c0 25.726 20.929 46.655 46.654 46.655h75.752c25.727 0 46.656-20.93 46.656-46.655V46.655C169.063 20.93 148.133 0 122.406 0zm31.657 122.407c0 17.455-14.201 31.655-31.656 31.655H46.654C29.2 154.063 15 139.862 15 122.407V46.655C15 29.201 29.2 15 46.654 15h75.752c17.455 0 31.656 14.201 31.656 31.655v75.752z"/><path d="M84.531 40.97c-24.021 0-43.563 19.542-43.563 43.563 0 24.02 19.542 43.561 43.563 43.561s43.563-19.541 43.563-43.561c0-24.021-19.542-43.563-43.563-43.563zm0 72.123c-15.749 0-28.563-12.812-28.563-28.561 0-15.75 12.813-28.563 28.563-28.563s28.563 12.813 28.563 28.563c0 15.749-12.814 28.561-28.563 28.561zM129.921 28.251c-2.89 0-5.729 1.17-7.77 3.22a11.053 11.053 0 0 0-3.23 7.78c0 2.891 1.18 5.73 3.23 7.78 2.04 2.04 4.88 3.22 7.77 3.22 2.9 0 5.73-1.18 7.78-3.22 2.05-2.05 3.22-4.89 3.22-7.78 0-2.9-1.17-5.74-3.22-7.78-2.04-2.05-4.88-3.22-7.78-3.22z"/></symbol><symbol id="mail" viewBox="0 0 31.012 31.012"><path d="M28.512 26.529H2.5a2.503 2.503 0 0 1-2.5-2.5V6.982c0-1.379 1.122-2.5 2.5-2.5h26.012c1.378 0 2.5 1.121 2.5 2.5v17.047c0 1.379-1.122 2.5-2.5 2.5zM2.5 5.482c-.827 0-1.5.673-1.5 1.5v17.047c0 .827.673 1.5 1.5 1.5h26.012c.827 0 1.5-.673 1.5-1.5V6.982c0-.827-.673-1.5-1.5-1.5H2.5z"/><path d="M15.506 18.018c-.665 0-1.33-.221-1.836-.662L.891 6.219a.5.5 0 1 1 .658-.754l12.778 11.137c.64.557 1.72.556 2.358 0L29.46 5.466a.497.497 0 0 1 .706.049.5.5 0 0 1-.048.705L17.342 17.355c-.506.442-1.171.663-1.836.663z"/></symbol><symbol id="oclock" viewBox="0 0 472.912 472.912"><path d="M236.477.016C106.078.016 0 106.07 0 236.444c0 130.39 106.078 236.452 236.477 236.452 130.374 0 236.436-106.07 236.436-236.452C472.912 106.07 366.851.016 236.477.016zm0 438c-111.134 0-201.564-90.43-201.564-201.564 0-111.126 90.43-201.54 201.564-201.54 111.126 0 201.54 90.422 201.54 201.54-.001 111.134-90.415 201.564-201.54 201.564z" fill="#010002"/><path d="M236.452 61.354c-9.616 0-17.444 7.828-17.444 17.444v140.21H94.771c-9.624 0-17.444 7.836-17.444 17.468 0 9.616 7.828 17.444 17.444 17.444h141.681c9.624 0 17.444-7.828 17.444-17.444V78.798c0-9.624-7.82-17.444-17.444-17.444z" fill="#010002"/></symbol><symbol id="phone" viewBox="0 0 578.106 578.106"><path d="M577.83 456.128c1.225 9.385-1.635 17.545-8.568 24.48l-81.396 80.781c-3.672 4.08-8.465 7.551-14.381 10.404-5.916 2.857-11.729 4.693-17.439 5.508-.408 0-1.635.105-3.676.309-2.037.203-4.689.307-7.953.307-7.754 0-20.301-1.326-37.641-3.979s-38.555-9.182-63.645-19.584c-25.096-10.404-53.553-26.012-85.376-46.818-31.823-20.805-65.688-49.367-101.592-85.68-28.56-28.152-52.224-55.08-70.992-80.783-18.768-25.705-33.864-49.471-45.288-71.299-11.425-21.828-19.993-41.616-25.705-59.364S4.59 177.362 2.55 164.51-.306 141.56.102 134.216c.408-7.344.612-11.424.612-12.24.816-5.712 2.652-11.526 5.508-17.442s6.324-10.71 10.404-14.382L98.022 8.756c5.712-5.712 12.24-8.568 19.584-8.568 5.304 0 9.996 1.53 14.076 4.59s7.548 6.834 10.404 11.322l65.484 124.236c3.672 6.528 4.692 13.668 3.06 21.42-1.632 7.752-5.1 14.28-10.404 19.584l-29.988 29.988c-.816.816-1.53 2.142-2.142 3.978s-.918 3.366-.918 4.59c1.632 8.568 5.304 18.36 11.016 29.376 4.896 9.792 12.444 21.726 22.644 35.802s24.684 30.293 43.452 48.653c18.36 18.77 34.68 33.354 48.96 43.76 14.277 10.4 26.215 18.053 35.803 22.949 9.588 4.896 16.932 7.854 22.031 8.871l7.648 1.531c.816 0 2.145-.307 3.979-.918 1.836-.613 3.162-1.326 3.979-2.143l34.883-35.496c7.348-6.527 15.912-9.791 25.705-9.791 6.938 0 12.443 1.223 16.523 3.672h.611l118.115 69.768c8.571 5.308 13.67 12.038 15.303 20.198z" fill="#010002"/></symbol><symbol id="pplans" viewBox="0 0 4315 1379"><g id="&#x421;&#x43B;&#x43E;&#x439;_x0020_1"><g id="_1597469681440"><path class="fil0" d="M1687 1034l67-344h132c20 0 38 3 52 10 16 8 28 19 37 34s13 33 13 53c0 29-7 54-22 78-14 23-33 40-57 51-16 8-34 11-53 11h-64l-21 107h-84zm119-179h41c12 0 21-2 28-7 18-12 26-29 26-53 0-10-3-18-8-24-6-6-15-9-26-9h-43l-18 93zM1983 1034l67-344h131c21 0 38 3 52 10 17 8 29 19 38 34 8 15 13 33 13 53 0 29-8 54-22 78-15 23-34 40-57 51-17 8-34 11-53 11h-64l-21 107h-84zm119-179h40c12 0 22-2 29-7 17-12 26-29 26-53 0-10-3-18-9-24s-15-9-26-9h-42l-18 93zM2276 1034l67-344h84l-53 272h141l-15 72zM2541 1034l179-344h97l48 344h-84l-7-72h-108l-35 72h-90zm158-140h69l-11-120c-24 49-37 76-58 120zM2906 1034l67-344h81l64 160 14 35 4 10c14-72 26-134 40-205h84l-67 344h-81c-28-69-55-137-82-206-14 71-26 135-40 206h-84zM3266 918c17 15 36 24 58 33 14 5 29 8 43 8 10 0 19-3 27-7 9-5 13-12 13-22 0-14-22-26-33-31-9-4-19-9-29-16-11-7-21-13-30-21-9-7-17-17-23-29s-10-25-10-39c0-32 13-57 38-76s53-28 86-28c47 0 78 12 103 29l-15 79c-13-11-27-18-50-26-13-5-26-7-39-7-10 0-19 2-28 7s-13 12-13 22c0 5 3 11 9 16 7 5 14 10 24 14 9 5 19 10 30 16l30 21c9 7 17 17 23 29s9 25 9 40c0 28-11 53-35 73-24 21-53 31-89 31-23 0-47-4-70-12-17-6-32-15-44-25v-1l15-78z"/><path class="fil1" d="M1345 730C1236 518 992 166 519 12c-107-34-219 6-280 100C110 311-73 698 30 1184c24 110 115 187 227 193 236 12 664-22 1033-355 84-75 106-193 55-292z"/><path class="fil2" d="M1824 534l-13 70h-30l42-216h27l-2 13-3 12c6-8 14-15 23-20 9-6 20-9 31-9 18 0 32 6 43 18 10 11 15 26 15 46 0 28-8 52-25 70-17 19-37 28-59 28-10 0-20-2-28-7-8-4-14-11-18-20h-1c0 5-1 9-2 15zm11-53c0 12 3 21 9 28 6 8 15 12 26 12 14 0 27-7 39-20s18-30 18-51c0-12-3-22-9-29-7-7-15-11-26-11-16 0-29 8-40 22s-17 31-17 49zm136 26c0-10 3-18 7-25 5-8 10-13 17-18 7-4 15-8 25-10 9-3 18-5 27-6s17-2 27-2h8c0-4 1-8 1-13 0-16-10-23-28-23-16 0-31 4-46 14l-8-23c6-5 15-8 25-12 11-3 22-5 33-5 16 0 29 4 39 11 10 8 15 19 15 35 0 4-1 9-2 16l-18 97h-28l3-16 3-12h-1c-4 7-11 14-20 21-10 7-21 10-33 10-13 0-24-3-32-10-9-8-14-17-14-29zm30-5c0 6 2 11 6 15s10 6 19 6c11 0 22-5 32-16 10-10 16-21 19-34l1-5h-8c-46 0-69 11-69 34zm125 22l14-19c5 5 10 9 17 12 7 4 15 5 23 5 9 0 18-2 25-8 7-5 11-13 11-22 0-12-9-18-27-18h-19l4-22h17c9 0 17-2 24-7 6-4 10-11 10-20 0-11-9-17-25-17-13 0-26 4-39 13l-9-20c15-11 33-17 54-17 15 0 27 4 35 10 9 7 14 16 14 27 0 10-3 18-8 25s-13 13-22 16v1c14 5 21 15 21 31s-6 28-19 38c-12 9-28 14-45 14-11 0-22-2-32-6s-18-9-24-16zm178 10l-14 70h-29l42-216h27l-2 13-4 12h1c6-8 13-15 23-20 9-6 19-9 31-9 18 0 32 6 42 18 11 11 16 26 16 46 0 28-9 52-26 70-16 19-36 28-58 28-11 0-20-2-28-7-9-4-15-11-19-20 0 5-1 9-2 15zm11-53c0 12 3 21 9 28 6 8 14 12 26 12 14 0 27-7 39-20s18-30 18-51c0-12-4-22-10-29s-15-11-26-11c-15 0-28 8-39 22s-17 31-17 49zm136 26c0-10 2-18 7-25 4-8 10-13 17-18 7-4 15-8 24-10 10-3 19-5 28-6 8-1 17-2 26-2h8c1-4 2-8 2-13 0-16-10-23-29-23-15 0-30 4-46 14l-8-23c7-5 15-8 26-12 11-3 22-5 33-5 16 0 29 4 38 11 10 8 15 19 15 35 0 4 0 9-1 16l-19 97h-27l3-16 3-12h-1c-4 7-11 14-21 21-9 7-20 10-32 10-13 0-24-3-33-10-8-8-13-17-13-29zm29-5c0 6 3 11 7 15s10 6 18 6c12 0 23-5 33-16 9-10 16-21 18-34l1-5h-7c-46 0-70 11-70 34zm144-26c0-14 2-28 6-43 3-15 9-28 17-39 7-12 16-22 28-30 11-8 25-16 42-22l60-23 6 24-65 25c-17 7-30 15-39 24-9 10-15 21-19 36 16-17 34-26 56-26 17 0 31 5 42 15 10 11 15 25 15 42 0 23-8 44-24 61-17 18-37 26-63 26-21 0-36-6-47-19-10-12-15-29-15-51zm29 8c0 12 3 21 10 27 7 7 15 10 26 10 15 0 28-6 38-17 11-12 16-26 16-41 0-12-3-21-10-27-6-7-15-10-25-10-15 0-27 6-38 17-11 12-17 26-17 41zm146-6c0-26 10-48 29-66s41-28 66-28c22 0 40 7 53 19 14 13 21 29 21 49 0 26-10 48-30 67-19 18-41 27-66 27-21 0-39-6-53-19-13-12-20-28-20-49zm30-1c0 13 4 24 12 32s19 12 32 12c16 0 31-7 44-20 14-13 20-29 20-48 0-12-4-23-12-31s-18-12-31-12c-17 0-32 7-45 20s-20 28-20 47zm188 66l25-130h-54l5-25h137l-5 25h-53l-25 130h-30zm112 0l30-155h30l-12 62h21l53-62h35l-66 77v1l42 77h-33l-35-67h-22l-13 67h-30zm152-36c0-10 2-18 7-25 4-8 10-13 17-18 7-4 15-8 24-10 10-3 19-5 28-6 8-1 17-2 26-2h8c1-4 2-8 2-13 0-16-10-23-28-23-16 0-31 4-47 14l-7-23c6-5 14-8 25-12 11-3 22-5 33-5 16 0 29 4 39 11 10 8 15 19 15 35 0 4-1 9-2 16l-19 97h-27l3-16 3-12h-1c-4 7-11 14-21 21-9 7-20 10-32 10-13 0-24-3-33-10-8-8-13-17-13-29zm30-5c0 6 2 11 6 15s10 6 19 6c11 0 22-5 32-16 9-10 16-21 19-34v-5h-7c-46 0-69 11-69 34zm215-23c0-26 10-48 29-67 19-18 41-28 67-28 25 0 44 8 58 23l-17 19c-4-5-10-9-18-12-7-2-15-4-22-4-18 0-33 7-47 20-13 13-19 29-19 47 0 13 4 24 12 32s19 12 33 12c17 0 35-7 51-21l9 23c-8 7-17 13-29 17-11 4-23 6-34 6-22 0-40-6-53-18-13-13-20-29-20-49zm157 28c0-10 2-18 7-25 4-8 10-13 17-18 7-4 15-8 24-10 9-3 18-5 27-6s18-2 27-2h8c1-4 1-8 1-13 0-16-9-23-28-23-15 0-31 4-46 14l-8-23c6-5 15-8 26-12 11-3 22-5 32-5 16 0 29 4 39 11 10 8 15 19 15 35 0 4 0 9-1 16l-19 97h-28l3-16 3-12c-5 7-11 14-21 21s-20 10-33 10c-12 0-23-3-32-10-9-8-13-17-13-29zm29-5c0 6 2 11 6 15 5 4 11 6 19 6 12 0 22-5 32-16 10-10 16-21 19-34l1-5h-8c-46 0-69 11-69 34zm242-132c-12 0-22-3-29-9-8-6-12-13-12-23 0-3 1-7 2-11h23c0 2-1 5-1 8 0 5 2 9 5 12 4 3 8 4 13 4 7 0 12-2 17-6 5-3 8-10 9-18h24c-2 15-8 26-18 33-9 7-20 10-33 10zm-106 173l30-155h28l-18 91-5 21h1c6-9 12-16 18-22l84-90h29l-30 155h-28l17-91 5-21c-7 8-13 15-18 22l-85 90h-28zm219 0l25-130h-53l5-25h137l-5 25h-54l-25 130h-30zm106-36c0-10 3-18 7-25 4-8 10-13 17-18 7-4 15-8 25-10 9-3 18-5 27-6 8-1 17-2 27-2h7c1-4 2-8 2-13 0-16-10-23-28-23-16 0-31 4-46 14l-8-23c6-5 14-8 25-12 11-3 22-5 33-5 16 0 29 4 39 11 10 8 15 19 15 35 0 4-1 9-2 16l-19 97h-27l3-16 3-12h-1c-4 7-11 14-21 21-9 7-20 10-32 10-13 0-24-3-33-10-8-8-13-17-13-29zm30-5c0 6 2 11 6 15s10 6 19 6c11 0 22-5 32-16 9-10 16-21 19-34v-5h-7c-46 0-69 11-69 34z"/><path class="fil3" d="M442 346l-60 688 286-128z"/><path class="fil4" d="M668 906l322-37-548-523z"/><path class="fil0" d="M3518 1032l14-77h78l-14 77h-78zm122 0l66-339h127c19 0 36 3 49 8 34 14 51 40 51 78 0 23-6 46-17 68-12 22-30 37-54 47v1c3 4 5 10 9 20l44 117h-90l-38-114h-41l-23 114h-83zm119-185h36c15 0 28-5 38-14s15-22 15-38c0-10-3-18-10-23-6-5-14-8-25-8h-37l-17 83zm190 86c0-9 1-18 3-28l41-212h83l-42 215c-1 4-1 9-1 13 0 13 4 23 13 31 9 7 21 10 37 10 18 0 33-4 46-14 12-9 20-23 23-40l42-215h83l-42 217c-8 39-26 70-53 93-28 23-62 35-102 35-37 0-69-9-94-28s-37-44-37-77z"/></g></g></symbol><symbol id="vk" viewBox="0 0 548.358 548.358"><path d="M545.451 400.298c-.664-1.431-1.283-2.618-1.858-3.569-9.514-17.135-27.695-38.167-54.532-63.102l-.567-.571-.284-.28-.287-.287h-.288c-12.18-11.611-19.893-19.418-23.123-23.415-5.91-7.614-7.234-15.321-4.004-23.13 2.282-5.9 10.854-18.36 25.696-37.397 7.807-10.089 13.99-18.175 18.556-24.267 32.931-43.78 47.208-71.756 42.828-83.939l-1.701-2.847c-1.143-1.714-4.093-3.282-8.846-4.712-4.764-1.427-10.853-1.663-18.278-.712l-82.224.568c-1.332-.472-3.234-.428-5.712.144l-3.713.859-1.431.715-1.136.859c-.952.568-1.999 1.567-3.142 2.995-1.137 1.423-2.088 3.093-2.848 4.996-8.952 23.031-19.13 44.444-30.553 64.238-7.043 11.803-13.511 22.032-19.418 30.693-5.899 8.658-10.848 15.037-14.842 19.126-4 4.093-7.61 7.372-10.852 9.849-3.237 2.478-5.708 3.525-7.419 3.142-1.715-.383-3.33-.763-4.859-1.143-2.663-1.714-4.805-4.045-6.42-6.995-1.622-2.95-2.714-6.663-3.285-11.136-.568-4.476-.904-8.326-1-11.563-.089-3.233-.048-7.806.145-13.706.198-5.903.287-9.897.287-11.991 0-7.234.141-15.085.424-23.555.288-8.47.521-15.181.716-20.125.194-4.949.284-10.185.284-15.705s-.336-9.849-1-12.991a44.442 44.442 0 0 0-2.99-9.137c-1.335-2.95-3.289-5.232-5.853-6.852-2.569-1.618-5.763-2.902-9.564-3.856-10.089-2.283-22.936-3.518-38.547-3.71-35.401-.38-58.148 1.906-68.236 6.855-3.997 2.091-7.614 4.948-10.848 8.562-3.427 4.189-3.905 6.475-1.431 6.851 11.422 1.711 19.508 5.804 24.267 12.275l1.715 3.429c1.334 2.474 2.666 6.854 3.999 13.134 1.331 6.28 2.19 13.227 2.568 20.837.95 13.897.95 25.793 0 35.689-.953 9.9-1.853 17.607-2.712 23.127-.859 5.52-2.143 9.993-3.855 13.418-1.715 3.426-2.856 5.52-3.428 6.28-.571.76-1.047 1.239-1.425 1.427a21.387 21.387 0 0 1-7.71 1.431c-2.667 0-5.901-1.334-9.707-4-3.805-2.666-7.754-6.328-11.847-10.992-4.093-4.665-8.709-11.184-13.85-19.558-5.137-8.374-10.467-18.271-15.987-29.691l-4.567-8.282c-2.855-5.328-6.755-13.086-11.704-23.267-4.952-10.185-9.329-20.037-13.134-29.554-1.521-3.997-3.806-7.04-6.851-9.134l-1.429-.859c-.95-.76-2.475-1.567-4.567-2.427a30.301 30.301 0 0 0-6.567-1.854l-78.229.568c-7.994 0-13.418 1.811-16.274 5.428l-1.143 1.711c-.571.953-.859 2.475-.859 4.57 0 2.094.571 4.664 1.714 7.707 11.42 26.84 23.839 52.725 37.257 77.659 13.418 24.934 25.078 45.019 34.973 60.237 9.897 15.229 19.985 29.602 30.264 43.112 10.279 13.515 17.083 22.176 20.412 25.981 3.333 3.812 5.951 6.662 7.854 8.565l7.139 6.851c4.568 4.569 11.276 10.041 20.127 16.416 8.853 6.379 18.654 12.659 29.408 18.85 10.756 6.181 23.269 11.225 37.546 15.126 14.275 3.905 28.169 5.472 41.684 4.716h32.834c6.659-.575 11.704-2.669 15.133-6.283l1.136-1.431c.764-1.136 1.479-2.901 2.139-5.276.668-2.379 1-5 1-7.851-.195-8.183.428-15.558 1.852-22.124 1.423-6.564 3.045-11.513 4.859-14.846 1.813-3.33 3.859-6.14 6.136-8.418 2.282-2.283 3.908-3.666 4.862-4.142.948-.479 1.705-.804 2.276-.999 4.568-1.522 9.944-.048 16.136 4.429 6.187 4.473 11.99 9.996 17.418 16.56 5.425 6.57 11.943 13.941 19.555 22.124 7.617 8.186 14.277 14.271 19.985 18.274l5.708 3.426c3.812 2.286 8.761 4.38 14.853 6.283 6.081 1.902 11.409 2.378 15.984 1.427l73.087-1.14c7.229 0 12.854-1.197 16.844-3.572 3.998-2.379 6.373-5 7.139-7.851.764-2.854.805-6.092.145-9.712-.677-3.611-1.344-6.136-2.008-7.563z"/></symbol></svg>