<svg xmlns="http://www.w3.org/2000/svg" xmlns:xlink="http://www.w3.org/1999/xlink"><defs><path id="a" d="M1369.103 3282.632l-10.94 7.037a2.104 2.104 0 0 1-2.088.103 1.931 1.931 0 0 1-1.075-1.713v-14.075a1.93 1.93 0 0 1 1.076-1.713 2.11 2.11 0 0 1 2.088.103l10.94 7.037c.56.36.896.964.896 1.61a1.92 1.92 0 0 1-.897 1.611z"/><style>.fil4{fill:#fefefe}.fil3{fill:#e3e3e3}.fil0,.fil1,.fil2{fill:#fefefe;fill-rule:nonzero}.fil1,.fil2{fill-opacity:.301961}.fil2{fill-opacity:.501961}</style></defs><symbol id="call-answer" viewBox="0 0 348.077 348.077"><path d="M340.273 275.083l-53.755-53.761c-10.707-10.664-28.438-10.34-39.518.744l-27.082 27.076a792.327 792.327 0 0 1-5.344-2.973c-17.102-9.476-40.509-22.464-65.14-47.113-24.704-24.701-37.704-48.144-47.209-65.257-1.003-1.813-1.964-3.561-2.913-5.221l18.176-18.149 8.936-8.947c11.097-11.1 11.403-28.826.721-39.521L73.39 8.194c-10.682-10.68-28.421-10.356-39.518.744l-15.15 15.237.414.411c-5.08 6.482-9.325 13.958-12.484 22.02C3.74 54.28 1.927 61.603 1.098 68.941-6 127.785 20.89 181.564 93.866 254.541c100.875 100.868 182.167 93.248 185.674 92.876 7.638-.913 14.958-2.738 22.397-5.627 7.992-3.122 15.463-7.361 21.941-12.43l.331.294 15.348-15.029c11.074-11.098 11.393-28.83.716-39.542z" fill="#fff"/></symbol><symbol id="facebook" viewBox="0 0 96.124 96.123"><path d="M72.089.02L59.624 0C45.62 0 36.57 9.285 36.57 23.656v10.907H24.037a1.96 1.96 0 0 0-1.96 1.961v15.803a1.96 1.96 0 0 0 1.96 1.96H36.57v39.876a1.96 1.96 0 0 0 1.96 1.96h16.352a1.96 1.96 0 0 0 1.96-1.96V54.287h14.654a1.96 1.96 0 0 0 1.96-1.96l.006-15.803a1.963 1.963 0 0 0-1.961-1.961H56.842v-9.246c0-4.444 1.059-6.7 6.848-6.7l8.397-.003a1.96 1.96 0 0 0 1.959-1.96V1.98A1.96 1.96 0 0 0 72.089.02z"/></symbol><symbol id="im" viewBox="0 0 512.00096 512.00096"><path d="M373.406 0H138.594C62.172 0 0 62.172 0 138.594V373.41C0 449.828 62.172 512 138.594 512H373.41C449.828 512 512 449.828 512 373.41V138.594C512 62.172 449.828 0 373.406 0zm108.578 373.41c0 59.867-48.707 108.574-108.578 108.574H138.594c-59.871 0-108.578-48.707-108.578-108.574V138.594c0-59.871 48.707-108.578 108.578-108.578H373.41c59.867 0 108.574 48.707 108.574 108.578zm0 0" fill="#e59c7d"/><path d="M256 116.004c-77.195 0-139.996 62.8-139.996 139.996S178.804 395.996 256 395.996 395.996 333.196 395.996 256 333.196 116.004 256 116.004zm0 249.976c-60.64 0-109.98-49.335-109.98-109.98 0-60.64 49.34-109.98 109.98-109.98 60.645 0 109.98 49.34 109.98 109.98 0 60.645-49.335 109.98-109.98 109.98zm0 0M399.344 66.285c-22.813 0-41.367 18.559-41.367 41.367 0 22.813 18.554 41.371 41.367 41.371s41.37-18.558 41.37-41.37-18.558-41.368-41.37-41.368zm0 52.719c-6.258 0-11.352-5.094-11.352-11.352 0-6.261 5.094-11.351 11.352-11.351 6.261 0 11.355 5.09 11.355 11.351 0 6.258-5.094 11.352-11.355 11.352zm0 0" fill="#e59c7d"/></symbol><symbol id="mail" viewBox="0 0 31.012 31.012"><path d="M28.512 26.529H2.5a2.503 2.503 0 0 1-2.5-2.5V6.982c0-1.379 1.122-2.5 2.5-2.5h26.012c1.378 0 2.5 1.121 2.5 2.5v17.047c0 1.379-1.122 2.5-2.5 2.5zM2.5 5.482c-.827 0-1.5.673-1.5 1.5v17.047c0 .827.673 1.5 1.5 1.5h26.012c.827 0 1.5-.673 1.5-1.5V6.982c0-.827-.673-1.5-1.5-1.5H2.5z"/><path d="M15.506 18.018c-.665 0-1.33-.221-1.836-.662L.891 6.219a.5.5 0 1 1 .658-.754l12.778 11.137c.64.557 1.72.556 2.358 0L29.46 5.466a.497.497 0 0 1 .706.049.5.5 0 0 1-.048.705L17.342 17.355c-.506.442-1.171.663-1.836.663z"/></symbol><symbol id="menu" viewBox="0 0 53 53"><path d="M2 13.5h49a2 2 0 0 0 0-4H2a2 2 0 0 0 0 4zM2 28.5h49a2 2 0 0 0 0-4H2a2 2 0 0 0 0 4zM2 43.5h49a2 2 0 0 0 0-4H2a2 2 0 0 0 0 4z"/></symbol><symbol id="oclock" viewBox="0 0 472.912 472.912"><path d="M236.477.016C106.078.016 0 106.07 0 236.444c0 130.39 106.078 236.452 236.477 236.452 130.374 0 236.436-106.07 236.436-236.452C472.912 106.07 366.851.016 236.477.016zm0 438c-111.134 0-201.564-90.43-201.564-201.564 0-111.126 90.43-201.54 201.564-201.54 111.126 0 201.54 90.422 201.54 201.54-.001 111.134-90.415 201.564-201.54 201.564z" fill="#010002"/><path d="M236.452 61.354c-9.616 0-17.444 7.828-17.444 17.444v140.21H94.771c-9.624 0-17.444 7.836-17.444 17.468 0 9.616 7.828 17.444 17.444 17.444h141.681c9.624 0 17.444-7.828 17.444-17.444V78.798c0-9.624-7.82-17.444-17.444-17.444z" fill="#010002"/></symbol><symbol id="phone" viewBox="0 0 578.106 578.106"><path d="M577.83 456.128c1.225 9.385-1.635 17.545-8.568 24.48l-81.396 80.781c-3.672 4.08-8.465 7.551-14.381 10.404-5.916 2.857-11.729 4.693-17.439 5.508-.408 0-1.635.105-3.676.309-2.037.203-4.689.307-7.953.307-7.754 0-20.301-1.326-37.641-3.979s-38.555-9.182-63.645-19.584c-25.096-10.404-53.553-26.012-85.376-46.818-31.823-20.805-65.688-49.367-101.592-85.68-28.56-28.152-52.224-55.08-70.992-80.783-18.768-25.705-33.864-49.471-45.288-71.299-11.425-21.828-19.993-41.616-25.705-59.364S4.59 177.362 2.55 164.51-.306 141.56.102 134.216c.408-7.344.612-11.424.612-12.24.816-5.712 2.652-11.526 5.508-17.442s6.324-10.71 10.404-14.382L98.022 8.756c5.712-5.712 12.24-8.568 19.584-8.568 5.304 0 9.996 1.53 14.076 4.59s7.548 6.834 10.404 11.322l65.484 124.236c3.672 6.528 4.692 13.668 3.06 21.42-1.632 7.752-5.1 14.28-10.404 19.584l-29.988 29.988c-.816.816-1.53 2.142-2.142 3.978s-.918 3.366-.918 4.59c1.632 8.568 5.304 18.36 11.016 29.376 4.896 9.792 12.444 21.726 22.644 35.802s24.684 30.293 43.452 48.653c18.36 18.77 34.68 33.354 48.96 43.76 14.277 10.4 26.215 18.053 35.803 22.949 9.588 4.896 16.932 7.854 22.031 8.871l7.648 1.531c.816 0 2.145-.307 3.979-.918 1.836-.613 3.162-1.326 3.979-2.143l34.883-35.496c7.348-6.527 15.912-9.791 25.705-9.791 6.938 0 12.443 1.223 16.523 3.672h.611l118.115 69.768c8.571 5.308 13.67 12.038 15.303 20.198z" fill="#010002"/></symbol><symbol id="play" viewBox="0 0 15 18"><use fill="#fff" xlink:href="#a" transform="translate(-1355 -3272)"/></symbol><symbol id="pplans" viewBox="0 0 4315 1379"><g id="&#x421;&#x43B;&#x43E;&#x439;_x0020_1"><g id="_1597469681440"><path class="fil0" d="M1687 1034l67-344h132c20 0 38 3 52 10 16 8 28 19 37 34s13 33 13 53c0 29-7 54-22 78-14 23-33 40-57 51-16 8-34 11-53 11h-64l-21 107h-84zm119-179h41c12 0 21-2 28-7 18-12 26-29 26-53 0-10-3-18-8-24-6-6-15-9-26-9h-43l-18 93zM1983 1034l67-344h131c21 0 38 3 52 10 17 8 29 19 38 34 8 15 13 33 13 53 0 29-8 54-22 78-15 23-34 40-57 51-17 8-34 11-53 11h-64l-21 107h-84zm119-179h40c12 0 22-2 29-7 17-12 26-29 26-53 0-10-3-18-9-24s-15-9-26-9h-42l-18 93zM2276 1034l67-344h84l-53 272h141l-15 72zM2541 1034l179-344h97l48 344h-84l-7-72h-108l-35 72h-90zm158-140h69l-11-120c-24 49-37 76-58 120zM2906 1034l67-344h81l64 160 14 35 4 10c14-72 26-134 40-205h84l-67 344h-81c-28-69-55-137-82-206-14 71-26 135-40 206h-84zM3266 918c17 15 36 24 58 33 14 5 29 8 43 8 10 0 19-3 27-7 9-5 13-12 13-22 0-14-22-26-33-31-9-4-19-9-29-16-11-7-21-13-30-21-9-7-17-17-23-29s-10-25-10-39c0-32 13-57 38-76s53-28 86-28c47 0 78 12 103 29l-15 79c-13-11-27-18-50-26-13-5-26-7-39-7-10 0-19 2-28 7s-13 12-13 22c0 5 3 11 9 16 7 5 14 10 24 14 9 5 19 10 30 16l30 21c9 7 17 17 23 29s9 25 9 40c0 28-11 53-35 73-24 21-53 31-89 31-23 0-47-4-70-12-17-6-32-15-44-25v-1l15-78z"/><path class="fil1" d="M1345 730C1236 518 992 166 519 12c-107-34-219 6-280 100C110 311-73 698 30 1184c24 110 115 187 227 193 236 12 664-22 1033-355 84-75 106-193 55-292z"/><path class="fil2" d="M1824 534l-13 70h-30l42-216h27l-2 13-3 12c6-8 14-15 23-20 9-6 20-9 31-9 18 0 32 6 43 18 10 11 15 26 15 46 0 28-8 52-25 70-17 19-37 28-59 28-10 0-20-2-28-7-8-4-14-11-18-20h-1c0 5-1 9-2 15zm11-53c0 12 3 21 9 28 6 8 15 12 26 12 14 0 27-7 39-20s18-30 18-51c0-12-3-22-9-29-7-7-15-11-26-11-16 0-29 8-40 22s-17 31-17 49zm136 26c0-10 3-18 7-25 5-8 10-13 17-18 7-4 15-8 25-10 9-3 18-5 27-6s17-2 27-2h8c0-4 1-8 1-13 0-16-10-23-28-23-16 0-31 4-46 14l-8-23c6-5 15-8 25-12 11-3 22-5 33-5 16 0 29 4 39 11 10 8 15 19 15 35 0 4-1 9-2 16l-18 97h-28l3-16 3-12h-1c-4 7-11 14-20 21-10 7-21 10-33 10-13 0-24-3-32-10-9-8-14-17-14-29zm30-5c0 6 2 11 6 15s10 6 19 6c11 0 22-5 32-16 10-10 16-21 19-34l1-5h-8c-46 0-69 11-69 34zm125 22l14-19c5 5 10 9 17 12 7 4 15 5 23 5 9 0 18-2 25-8 7-5 11-13 11-22 0-12-9-18-27-18h-19l4-22h17c9 0 17-2 24-7 6-4 10-11 10-20 0-11-9-17-25-17-13 0-26 4-39 13l-9-20c15-11 33-17 54-17 15 0 27 4 35 10 9 7 14 16 14 27 0 10-3 18-8 25s-13 13-22 16v1c14 5 21 15 21 31s-6 28-19 38c-12 9-28 14-45 14-11 0-22-2-32-6s-18-9-24-16zm178 10l-14 70h-29l42-216h27l-2 13-4 12h1c6-8 13-15 23-20 9-6 19-9 31-9 18 0 32 6 42 18 11 11 16 26 16 46 0 28-9 52-26 70-16 19-36 28-58 28-11 0-20-2-28-7-9-4-15-11-19-20 0 5-1 9-2 15zm11-53c0 12 3 21 9 28 6 8 14 12 26 12 14 0 27-7 39-20s18-30 18-51c0-12-4-22-10-29s-15-11-26-11c-15 0-28 8-39 22s-17 31-17 49zm136 26c0-10 2-18 7-25 4-8 10-13 17-18 7-4 15-8 24-10 10-3 19-5 28-6 8-1 17-2 26-2h8c1-4 2-8 2-13 0-16-10-23-29-23-15 0-30 4-46 14l-8-23c7-5 15-8 26-12 11-3 22-5 33-5 16 0 29 4 38 11 10 8 15 19 15 35 0 4 0 9-1 16l-19 97h-27l3-16 3-12h-1c-4 7-11 14-21 21-9 7-20 10-32 10-13 0-24-3-33-10-8-8-13-17-13-29zm29-5c0 6 3 11 7 15s10 6 18 6c12 0 23-5 33-16 9-10 16-21 18-34l1-5h-7c-46 0-70 11-70 34zm144-26c0-14 2-28 6-43 3-15 9-28 17-39 7-12 16-22 28-30 11-8 25-16 42-22l60-23 6 24-65 25c-17 7-30 15-39 24-9 10-15 21-19 36 16-17 34-26 56-26 17 0 31 5 42 15 10 11 15 25 15 42 0 23-8 44-24 61-17 18-37 26-63 26-21 0-36-6-47-19-10-12-15-29-15-51zm29 8c0 12 3 21 10 27 7 7 15 10 26 10 15 0 28-6 38-17 11-12 16-26 16-41 0-12-3-21-10-27-6-7-15-10-25-10-15 0-27 6-38 17-11 12-17 26-17 41zm146-6c0-26 10-48 29-66s41-28 66-28c22 0 40 7 53 19 14 13 21 29 21 49 0 26-10 48-30 67-19 18-41 27-66 27-21 0-39-6-53-19-13-12-20-28-20-49zm30-1c0 13 4 24 12 32s19 12 32 12c16 0 31-7 44-20 14-13 20-29 20-48 0-12-4-23-12-31s-18-12-31-12c-17 0-32 7-45 20s-20 28-20 47zm188 66l25-130h-54l5-25h137l-5 25h-53l-25 130h-30zm112 0l30-155h30l-12 62h21l53-62h35l-66 77v1l42 77h-33l-35-67h-22l-13 67h-30zm152-36c0-10 2-18 7-25 4-8 10-13 17-18 7-4 15-8 24-10 10-3 19-5 28-6 8-1 17-2 26-2h8c1-4 2-8 2-13 0-16-10-23-28-23-16 0-31 4-47 14l-7-23c6-5 14-8 25-12 11-3 22-5 33-5 16 0 29 4 39 11 10 8 15 19 15 35 0 4-1 9-2 16l-19 97h-27l3-16 3-12h-1c-4 7-11 14-21 21-9 7-20 10-32 10-13 0-24-3-33-10-8-8-13-17-13-29zm30-5c0 6 2 11 6 15s10 6 19 6c11 0 22-5 32-16 9-10 16-21 19-34v-5h-7c-46 0-69 11-69 34zm215-23c0-26 10-48 29-67 19-18 41-28 67-28 25 0 44 8 58 23l-17 19c-4-5-10-9-18-12-7-2-15-4-22-4-18 0-33 7-47 20-13 13-19 29-19 47 0 13 4 24 12 32s19 12 33 12c17 0 35-7 51-21l9 23c-8 7-17 13-29 17-11 4-23 6-34 6-22 0-40-6-53-18-13-13-20-29-20-49zm157 28c0-10 2-18 7-25 4-8 10-13 17-18 7-4 15-8 24-10 9-3 18-5 27-6s18-2 27-2h8c1-4 1-8 1-13 0-16-9-23-28-23-15 0-31 4-46 14l-8-23c6-5 15-8 26-12 11-3 22-5 32-5 16 0 29 4 39 11 10 8 15 19 15 35 0 4 0 9-1 16l-19 97h-28l3-16 3-12c-5 7-11 14-21 21s-20 10-33 10c-12 0-23-3-32-10-9-8-13-17-13-29zm29-5c0 6 2 11 6 15 5 4 11 6 19 6 12 0 22-5 32-16 10-10 16-21 19-34l1-5h-8c-46 0-69 11-69 34zm242-132c-12 0-22-3-29-9-8-6-12-13-12-23 0-3 1-7 2-11h23c0 2-1 5-1 8 0 5 2 9 5 12 4 3 8 4 13 4 7 0 12-2 17-6 5-3 8-10 9-18h24c-2 15-8 26-18 33-9 7-20 10-33 10zm-106 173l30-155h28l-18 91-5 21h1c6-9 12-16 18-22l84-90h29l-30 155h-28l17-91 5-21c-7 8-13 15-18 22l-85 90h-28zm219 0l25-130h-53l5-25h137l-5 25h-54l-25 130h-30zm106-36c0-10 3-18 7-25 4-8 10-13 17-18 7-4 15-8 25-10 9-3 18-5 27-6 8-1 17-2 27-2h7c1-4 2-8 2-13 0-16-10-23-28-23-16 0-31 4-46 14l-8-23c6-5 14-8 25-12 11-3 22-5 33-5 16 0 29 4 39 11 10 8 15 19 15 35 0 4-1 9-2 16l-19 97h-27l3-16 3-12h-1c-4 7-11 14-21 21-9 7-20 10-32 10-13 0-24-3-33-10-8-8-13-17-13-29zm30-5c0 6 2 11 6 15s10 6 19 6c11 0 22-5 32-16 9-10 16-21 19-34v-5h-7c-46 0-69 11-69 34z"/><path class="fil3" d="M442 346l-60 688 286-128z"/><path class="fil4" d="M668 906l322-37-548-523z"/><path class="fil0" d="M3518 1032l14-77h78l-14 77h-78zm122 0l66-339h127c19 0 36 3 49 8 34 14 51 40 51 78 0 23-6 46-17 68-12 22-30 37-54 47v1c3 4 5 10 9 20l44 117h-90l-38-114h-41l-23 114h-83zm119-185h36c15 0 28-5 38-14s15-22 15-38c0-10-3-18-10-23-6-5-14-8-25-8h-37l-17 83zm190 86c0-9 1-18 3-28l41-212h83l-42 215c-1 4-1 9-1 13 0 13 4 23 13 31 9 7 21 10 37 10 18 0 33-4 46-14 12-9 20-23 23-40l42-215h83l-42 217c-8 39-26 70-53 93-28 23-62 35-102 35-37 0-69-9-94-28s-37-44-37-77z"/></g></g></symbol><symbol id="right-arrow" viewBox="0 0 129 129"><path d="M40.4 121.3c-.8.8-1.8 1.2-2.9 1.2s-2.1-.4-2.9-1.2c-1.6-1.6-1.6-4.2 0-5.8l51-51-51-51c-1.6-1.6-1.6-4.2 0-5.8 1.6-1.6 4.2-1.6 5.8 0l53.9 53.9c1.6 1.6 1.6 4.2 0 5.8l-53.9 53.9z" fill="#a6a8bf"/></symbol><symbol id="vk" viewBox="0 0 511.998 511.998"><path d="M489.25 335.681c-11.137-13.347-23.719-25.264-35.888-36.789-4.276-4.051-8.7-8.24-12.96-12.399l-.003-.003c-5.73-5.589-8.535-9.556-8.828-12.486-.288-2.88 1.68-7.153 6.207-13.469 6.769-9.5 13.984-19.016 20.964-28.218 6.204-8.18 12.618-16.639 18.766-25.146l1.38-1.91c11.995-16.602 24.397-33.769 31.043-54.689 1.898-5.998 3.869-14.874-.885-22.666-4.756-7.794-13.573-10.104-19.787-11.162-3.035-.52-5.915-.563-8.595-.563l-77.806-.069c-13.452-.224-22.784 6.152-27.87 18.956-4.07 10.226-8.877 22.077-14.446 33.319-10.655 21.703-24.194 46.7-43.818 67.527l-.872.928c-1.336 1.426-3.519 3.758-4.64 4.293-2.126-1.336-4.579-8.977-4.467-12.98.003-.099.004-.197.004-.295l-.069-89.903c0-.457-.032-.914-.093-1.367-1.745-12.826-5.147-25.684-25.447-29.69a10.164 10.164 0 0 0-1.975-.193H198.23c-15.227 0-23.281 6.973-29.738 14.533-1.869 2.204-6.835 8.056-4.305 15.21 2.56 7.239 10.188 8.684 12.692 9.158 8.82 1.674 13.381 6.659 14.793 16.189 2.791 18.517 3.133 38.326 1.078 62.309-.573 6.439-1.639 11.333-3.359 15.403-.476 1.127-.894 1.825-1.186 2.236-.466-.188-1.191-.548-2.195-1.235-6.198-4.241-10.869-10.834-15.386-17.208-18.042-25.473-33.218-53.607-46.401-86.022-5.429-13.283-15.635-20.702-28.719-20.894-24.928-.415-47.983-.405-70.459.032-10.601.184-18.035 3.521-22.099 9.92-4.069 6.411-3.92 14.585.444 24.299 31.196 69.37 59.522 119.834 91.842 163.628 22.757 30.832 45.665 52.234 72.092 67.354 27.766 15.885 59.08 23.67 95.408 23.669 4.131 0 8.334-.101 12.593-.304 22.413-1.021 31.532-9.936 32.527-31.765.558-11.537 1.842-20.883 6.297-29.003 1.246-2.273 2.652-3.797 3.76-4.076 1.178-.294 3.267.427 5.59 1.936 4.247 2.758 7.904 6.498 10.911 9.781 3.048 3.337 6.128 6.784 9.109 10.117 6.343 7.097 12.902 14.436 19.774 21.436 15.543 15.844 33.461 23.11 53.278 21.588l71.205.033h.004c.226 0 .452-.007.678-.022 8.213-.547 15.314-5.094 19.484-12.478 5.021-8.892 4.945-20.155-.207-30.14-5.376-10.381-12.351-19.316-18.485-26.71zm.931 46.821c-.982 1.739-2.193 2.056-2.818 2.132l-71.19-.033h-.007a9.82 9.82 0 0 0-.841.035c-14.025 1.168-25.946-3.762-37.474-15.512-6.539-6.662-12.937-13.819-19.124-20.741-3.015-3.373-6.132-6.862-9.264-10.29-3.884-4.242-8.685-9.117-14.854-13.123-9.236-5.995-16.89-5.814-21.683-4.606-4.743 1.195-11.485 4.605-16.66 14.049-6.704 12.219-8.183 25.401-8.785 37.854-.348 7.616-1.636 9.628-2.174 10.139-.705.67-3.061 1.848-10.922 2.207-37.776 1.776-69.478-4.989-96.931-20.696-23.882-13.664-44.794-33.291-65.809-61.762-31.425-42.579-59.075-91.887-89.65-159.877-1.108-2.463-1.45-4-1.549-4.823.78-.256 2.304-.593 4.976-.642 22.248-.431 45.062-.443 69.765-.031 3.382.05 7.233 1.065 10.149 8.2 13.774 33.869 29.685 63.344 48.645 90.112 5.034 7.105 11.3 15.949 20.509 22.25 8.435 5.776 15.28 5.5 19.538 4.252 4.26-1.249 10.172-4.719 14.154-14.147 2.569-6.077 4.122-12.92 4.891-21.566 2.197-25.653 1.807-46.981-1.225-67.098-2.137-14.413-9.579-24.825-21.302-30.142 2.082-1.084 4.428-1.536 7.686-1.536h79.877c4.494 1.008 5.384 2.192 5.689 2.597 1.294 1.721 2.034 5.792 2.486 8.973l.068 89.074c-.18 8.539 3.97 27.477 18.1 32.67.116.043.233.083.35.121 12.864 4.204 21.373-4.877 25.941-9.756l.814-.866c21.496-22.815 35.971-49.473 47.28-72.508 5.894-11.895 10.886-24.199 15.107-34.805 2.112-5.319 4.034-6.195 8.62-6.098.063.002.125.002.189.002l77.905.069c1.812 0 3.703.021 5.17.272 3.712.632 5.241 1.402 5.745 1.721.052.591.04 2.291-1.082 5.839-5.651 17.789-16.572 32.903-28.133 48.905l-1.381 1.913c-6.007 8.312-12.35 16.675-18.483 24.764-7.07 9.321-14.378 18.958-21.307 28.684-14.814 20.669-13.512 34.385 4.975 52.417 4.369 4.265 8.847 8.507 13.179 12.609 12.281 11.633 23.882 22.62 34.235 35.026 5.42 6.534 11.564 14.381 16.042 23.029 2.336 4.527 1.763 8.617.563 10.743z" fill="#e59c7d"/><path d="M74.382 169.635a1088.422 1088.422 0 0 1-4.454-8.914c-2.496-5.049-8.608-7.123-13.661-4.627-5.05 2.495-7.122 8.611-4.627 13.661 1.499 3.034 3.012 6.062 4.537 9.081a10.199 10.199 0 0 0 13.702 4.502c5.029-2.542 7.044-8.676 4.503-13.703zM138.353 275.441c-16.724-22.659-32.37-47.27-47.83-75.239-2.725-4.93-8.931-6.716-13.86-3.992-4.929 2.725-6.717 8.931-3.992 13.86 15.896 28.756 32.013 54.102 49.271 77.485 2 2.71 5.087 4.143 8.214 4.143a10.14 10.14 0 0 0 6.048-1.995c4.531-3.344 5.493-9.729 2.149-14.262z" fill="#e59c7d"/></symbol></svg>